<svg xmlns="http://www.w3.org/2000/svg" aria-hidden="true" style="position:absolute;width:0;height:0;overflow:hidden">
  <defs>
    <symbol id="icon-facebook" viewBox="0 0 16 16">
      <path
        d="M10.665 2.657h1.461V.113A18.755 18.755 0 0 0 9.998 0C7.892 0 6.449 1.325 6.449 3.759V6H4.125v2.844h2.324V16h2.849V8.845h2.23l.354-2.844H9.297V4.042c.001-.822.222-1.385 1.367-1.385z" />
    </symbol>
    <symbol id="icon-linkedin" viewBox="0 0 16 16">
      <path
        d="M15.996 16v-.001H16v-5.868c0-2.871-.618-5.082-3.974-5.082-1.613 0-2.696.885-3.138 1.725h-.047V5.317H5.659v10.682h3.313V10.71c0-1.393.264-2.739 1.989-2.739 1.699 0 1.725 1.589 1.725 2.829v5.201h3.31zM.264 5.318h3.317V16H.264V5.318zM1.921 0C.86 0 0 .861 0 1.921S.861 3.86 1.921 3.86c1.061 0 1.921-.879 1.921-1.939S2.981 0 1.921 0z" />
    </symbol>
    <symbol id="icon-instagram" viewBox="0 0 16 16">
      <path
        d="M15.984 4.704c-.037-.85-.175-1.435-.372-1.941a3.904 3.904 0 0 0-.925-1.419 3.944 3.944 0 0 0-1.416-.922C12.762.225 12.18.088 11.33.05 10.473.009 10.202 0 8.029 0S5.585.009 4.731.047c-.85.037-1.435.175-1.941.372a3.904 3.904 0 0 0-1.419.925c-.406.4-.722.885-.922 1.416-.197.51-.334 1.091-.372 1.941-.041.856-.05 1.128-.05 3.301s.009 2.444.047 3.298c.037.85.175 1.435.372 1.941.203.538.519 1.019.925 1.419.4.406.885.722 1.416.922.51.197 1.091.335 1.941.372.853.038 1.125.047 3.298.047s2.444-.009 3.298-.047c.85-.037 1.435-.175 1.941-.372a4.095 4.095 0 0 0 2.341-2.341c.197-.509.334-1.091.372-1.941.038-.853.047-1.125.047-3.298s-.003-2.444-.041-3.298zm-1.441 6.532c-.034.781-.166 1.203-.275 1.485a2.655 2.655 0 0 1-1.519 1.519c-.281.109-.706.241-1.485.275-.844.038-1.097.047-3.232.047s-2.391-.009-3.232-.047c-.781-.034-1.203-.166-1.485-.275a2.453 2.453 0 0 1-.919-.597 2.477 2.477 0 0 1-.597-.919c-.109-.281-.241-.706-.275-1.485-.038-.844-.047-1.097-.047-3.232s.009-2.391.047-3.232c.034-.781.166-1.203.275-1.485.128-.347.331-.663.6-.919.259-.266.572-.469.919-.597.281-.109.706-.241 1.485-.275.844-.037 1.097-.047 3.232-.047 2.138 0 2.391.009 3.232.047.781.034 1.203.166 1.485.275.347.128.663.331.919.597.266.259.469.572.597.919.109.281.241.706.275 1.485.037.844.047 1.097.047 3.232s-.009 2.385-.047 3.229z" />
      <path
        d="M8.03 3.891a4.111 4.111 0 0 0 0 8.22 4.111 4.111 0 0 0 0-8.22zm0 6.777a2.667 2.667 0 1 1 .001-5.333 2.667 2.667 0 0 1-.001 5.333zM13.262 3.729a.96.96 0 1 1-1.92 0 .96.96 0 0 1 1.92 0z" />
    </symbol>
    <symbol id="icon-twitter" viewBox="0 0 16 16">
      <path
        d="M16 3.039a6.839 6.839 0 0 1-1.89.518 3.262 3.262 0 0 0 1.443-1.813 6.555 6.555 0 0 1-2.08.794 3.28 3.28 0 0 0-5.674 2.243c0 .26.022.51.076.748a9.284 9.284 0 0 1-6.761-3.431 3.285 3.285 0 0 0 1.008 4.384A3.24 3.24 0 0 1 .64 6.078v.036a3.295 3.295 0 0 0 2.628 3.223 3.274 3.274 0 0 1-.86.108 2.9 2.9 0 0 1-.621-.056 3.311 3.311 0 0 0 3.065 2.285 6.59 6.59 0 0 1-4.067 1.399c-.269 0-.527-.012-.785-.045A9.234 9.234 0 0 0 5.032 14.5c6.036 0 9.336-5 9.336-9.334 0-.145-.005-.285-.012-.424A6.544 6.544 0 0 0 16 3.039z" />
    </symbol>
    <symbol id="icon-ya-co" viewBox="0 0 30 16">
      <path
        d="M10.857 2l2 1.914h-3.714v9.229h9.714v-3.514l2 1.886v-9.514h-10zM18.771 9.4l-5.686-5.429h5.686v5.429zM17 11.8h-6.314v-6.229h0.429v5.8h5.886v0.429zM11.943 14.886l-0.229-0.486h-0.2l0.343 0.629v0.4h0.171v-0.371l0.343-0.629h-0.2l-0.229 0.486zM12.8 14.4h0.057l0.371 1h-0.171l-0.086-0.229h-0.4l-0.086 0.229h-0.171l0.371-1h0.114zM12.629 15.029h0.286l-0.143-0.429-0.143 0.429zM13.857 14.857c-0.025-0.031-0.053-0.068-0.080-0.106l-0.006-0.008v-0.257l0.114-0.086h0.257c0.077 0.038 0.129 0.116 0.129 0.206 0 0.029-0.005 0.056-0.015 0.082l0.001-0.002-0.057 0.086-0.086 0.057-0.057 0.057 0.2 0.229c0.035-0.057 0.056-0.126 0.057-0.2v-0h0.143v0.143c-0.016 0.066-0.046 0.124-0.086 0.172l0.001-0.001 0.143 0.171h-0.229l-0.057-0.057-0.114 0.057c-0.047 0.018-0.101 0.028-0.157 0.028s-0.11-0.010-0.16-0.029l0.003 0.001c-0.049-0.027-0.088-0.066-0.114-0.113l-0.001-0.001c-0.024-0.041-0.038-0.090-0.038-0.143s0.014-0.102 0.039-0.144l-0.001 0.001 0.143-0.143zM13.943 14.971h-0.029l-0.057 0.057c-0.014 0.025-0.023 0.054-0.023 0.086s0.009 0.061 0.023 0.087l-0-0.001c0 0.029 0 0.057 0.057 0.057l0.086 0.029c0.065 0 0.124-0.021 0.172-0.058l-0.001 0.001-0.229-0.286zM13.971 14.771l0.057-0.029 0.086-0.057v-0.143l-0.114-0.029c-0.037 0.005-0.068 0.026-0.085 0.057l-0 0.001c-0.008 0.017-0.012 0.036-0.012 0.057s0.004 0.040 0.012 0.058l-0-0.001 0.057 0.086zM15.743 15.057h-0.171v0.143l-0.086 0.057c-0.021 0.006-0.046 0.009-0.071 0.009s-0.050-0.003-0.073-0.010l0.002 0h-0.086c-0.034-0.012-0.063-0.031-0.086-0.057l-0-0-0.029-0.114v-0.371l0.029-0.114 0.086-0.057h0.229l0.057 0.057 0.029 0.114h0.171c0-0.057 0-0.114-0.057-0.171 0-0.057-0.057-0.086-0.114-0.114l-0.2-0.057-0.171 0.029-0.143 0.114-0.086 0.143v0.486c0 0.057 0.057 0.114 0.086 0.143 0.067 0.086 0.17 0.141 0.285 0.143h0c0.086 0 0.171 0 0.229-0.057 0.057 0 0.086-0.057 0.114-0.114l0.057-0.171zM16.714 14.914v-0.257l-0.114-0.143-0.114-0.114h-0.343l-0.143 0.114-0.086 0.143-0.029 0.2v0.286l0.114 0.143c0.067 0.086 0.17 0.141 0.285 0.143h0l0.2-0.029 0.114-0.114 0.086-0.143 0.029-0.229zM16.571 14.857v0.229l-0.057 0.114-0.086 0.057h-0.2c-0.034-0.013-0.062-0.032-0.086-0.057l-0-0-0.057-0.114v-0.371l0.057-0.114 0.086-0.057h0.2l0.086 0.057 0.057 0.114v0.143z">
      </path>
    </symbol>
    <symbol id="icon-co-teg-here" viewBox="0 0 30 16">
      <path
        d="M14.314 1.714h-0.314c-0.055-0.002-0.12-0.003-0.186-0.003s-0.13 0.001-0.195 0.003l0.010-0c-1.057 0-2.086 0.286-3.029 0.714l-0.143 0.057v6.371l0.286-0.114c0.934-0.317 2.010-0.514 3.129-0.543l0.014-0v0.857h-0.314c-1.444 0.073-2.781 0.467-3.963 1.11l0.049-0.024v-8.114c1.227-0.733 2.705-1.168 4.285-1.171h0.144c0.54 0.024 1.049 0.096 1.542 0.211l-0.056-0.011v0.8c-0.343-0.086-0.686-0.114-1.029-0.143h-0.257zM15.743 2.543h0.571c1.583-0.004 3.070-0.417 4.36-1.138l-0.046 0.023v8c-1.217 0.712-2.68 1.132-4.242 1.132-0.582 0-1.15-0.058-1.699-0.169l0.055 0.009v-8c0.298 0.069 0.65 0.12 1.010 0.142l0.018 0.001zM19.8 2.6l-0.286 0.086-0.8 0.257c-0.721 0.19-1.549 0.299-2.403 0.299-0.18 0-0.359-0.005-0.536-0.014l0.025 0.001h-0.229v6.486h0.171l0.571 0.057c1.239-0.002 2.409-0.298 3.444-0.82l-0.044 0.020 0.114-0.057v-6.314z">
      </path>
      <path
        d="M10.2 12.914c-0.075-0.070-0.175-0.113-0.285-0.114h-0.2c-0.168 0.060-0.286 0.219-0.286 0.404 0 0.009 0 0.017 0.001 0.025l-0-0.001v1.086c0 0.086 0 0.171 0.057 0.229 0 0.057 0.057 0.114 0.086 0.143l0.171 0.086h0.314c0.169-0.070 0.286-0.233 0.286-0.424 0-0.002-0-0.003-0-0.005v0-0.114h-0.286v0.171l-0.114 0.114h-0.057c-0.008 0.002-0.017 0.003-0.027 0.003-0.048 0-0.090-0.023-0.116-0.059l-0-0-0.029-0.171v-1.029l0.029-0.143c0.023-0.051 0.073-0.086 0.131-0.086 0.004 0 0.008 0 0.012 0.001l-0.001-0c0.052 0.006 0.094 0.039 0.114 0.085l0 0.001c0.057 0.029 0.057 0.086 0.057 0.143v0.086h0.286v-0.114c-0.003-0.133-0.057-0.254-0.143-0.343l0 0zM11.886 12.914c-0.087-0.070-0.199-0.113-0.321-0.113-0.059 0-0.115 0.010-0.168 0.028l0.004-0.001c-0.057 0-0.114 0.029-0.143 0.086l-0.114 0.143-0.029 0.2v1.057l0.029 0.2c0 0.057 0.057 0.114 0.114 0.143 0.029 0.057 0.086 0.086 0.143 0.086 0.051 0.020 0.11 0.031 0.171 0.031s0.121-0.011 0.175-0.032l-0.003 0.001c0.057 0 0.114-0.029 0.143-0.086 0.088-0.084 0.143-0.201 0.143-0.332 0-0.004-0-0.008-0-0.011l0 0.001v-1.057l-0.029-0.2c0-0.057-0.057-0.114-0.114-0.143zM11.771 14.314c0 0.001 0 0.002 0 0.003 0 0.055-0.022 0.104-0.057 0.14l0-0c-0.036 0.037-0.087 0.060-0.143 0.060s-0.107-0.023-0.143-0.060l-0-0c-0.035-0.036-0.057-0.085-0.057-0.14 0-0.001 0-0.002 0-0.003v0-1.057c-0-0.001-0-0.002-0-0.003 0-0.055 0.022-0.104 0.057-0.14l-0 0c0.036-0.037 0.087-0.060 0.143-0.060s0.107 0.023 0.143 0.060l0 0c0.035 0.036 0.057 0.085 0.057 0.14 0 0.001 0 0.002-0 0.003v-0 1.057zM14.114 14.771v-1.971h-0.286l-0.343 1.057-0.371-1.057h-0.286v1.971h0.286v-1.2l0.286 0.857h0.143l0.286-0.857v1.2h0.286zM15.714 12.943l-0.171-0.114h-0.629v1.943h0.286v-0.771h0.143c0.086 0 0.171 0 0.257-0.057l0.143-0.143 0.086-0.171c0.015-0.077 0.024-0.166 0.024-0.257s-0.009-0.18-0.025-0.266l0.001 0.009-0.114-0.171zM15.571 13.514l-0.029 0.143-0.086 0.057c-0.021 0.006-0.046 0.009-0.071 0.009s-0.050-0.003-0.073-0.010l0.002 0h-0.114v-0.657h0.143l0.114 0.029 0.086 0.086v0.371zM17.029 12.8h-0.229l-0.429 1.971h0.286l0.086-0.429h0.371l0.086 0.429h0.286l-0.457-1.971zM16.771 14.086l0.143-0.714 0.143 0.714h-0.286zM18.857 14l-0.457-1.2h-0.257v1.971h0.286v-1.171l0.429 1.171h0.286v-1.971h-0.286v1.2zM20.571 12.8l-0.229 0.771-0.257-0.771h-0.286l0.4 1.143v0.829h0.286v-0.857l0.371-1.114h-0.286zM9.429 15.314h0.143v0.4h0.086v-0.4h0.143v-0.057h-0.371v0.057zM10.571 15.257l-0.171 0.457h0.086l0.029-0.114h0.2l0.029 0.114h0.114l-0.2-0.457h-0.086zM10.571 15.543l0.029-0.2 0.086 0.171h-0.143zM11.714 15.543h0.086v0.057l-0.114 0.029c-0.003 0-0.006 0-0.010 0-0.029 0-0.056-0.011-0.076-0.029l0 0-0.057-0.114c0-0.114 0.057-0.171 0.143-0.171 0.009-0.003 0.018-0.005 0.029-0.005 0.047 0 0.086 0.038 0.086 0.086 0 0.002-0 0.003-0 0.005l0-0h0.086c0-0.114-0.086-0.171-0.2-0.171l-0.171 0.057c-0.038 0.041-0.061 0.096-0.061 0.156 0 0.016 0.002 0.031 0.005 0.046l-0-0.001c0 0.057 0 0.114 0.057 0.171 0.040 0.036 0.094 0.058 0.152 0.058 0.007 0 0.014-0 0.020-0.001l-0.001 0c0.086 0 0.143 0 0.2-0.086v-0.171h-0.2v0.086zM12.857 15.257h-0.114v0.457h0.314v-0.086h-0.2v-0.371zM13.8 15.257h-0.086v0.457h0.086v-0.457zM14.743 15.543l-0.171-0.286h-0.086v0.457h0.086v-0.286l0.171 0.286h0.086v-0.457h-0.086v0.286zM15.6 15.514h0.229v-0.086h-0.229v-0.114h0.257v-0.057h-0.343v0.457h0.343v-0.086h-0.257v-0.114zM17.714 15.429h-0.2v-0.171h-0.086v0.457h0.086v-0.2h0.171v0.2h0.086v-0.457h-0.057v0.171zM18.571 15.514h0.2v-0.086h-0.2v-0.114h0.257v-0.057h-0.343v0.457h0.343v-0.086h-0.257v-0.114zM19.714 15.514c0.086 0 0.114-0.057 0.114-0.143 0-0.003 0-0.006 0-0.010 0-0.029-0.011-0.056-0.029-0.076l0 0c-0.035-0.019-0.076-0.030-0.12-0.030-0.008 0-0.016 0-0.024 0.001l0.001-0h-0.2v0.457h0.114v-0.2h0.057l0.029 0.057 0.114 0.143h0.114l-0.057-0.086-0.114-0.114zM19.629 15.429h-0.057v-0.114h0.143c0.032 0 0.057 0.026 0.057 0.057s-0.026 0.057-0.057 0.057v0c-0.013 0.002-0.028 0.003-0.043 0.003s-0.030-0.001-0.044-0.003l0.002 0zM20.6 15.514h0.229v-0.086h-0.229v-0.114h0.257v-0.057h-0.343v0.457h0.343v-0.086h-0.257v-0.114z">
      </path>
    </symbol>
    <symbol id="icon-company" viewBox="0 0 30 16">
      <path
        d="M10.514 14.057h0.029l0.057 0.086-0.171 0.114-0.257 0.029-0.229-0.029c-0.086-0.029-0.143-0.057-0.171-0.114-0.057-0.057-0.114-0.114-0.114-0.171-0.028-0.063-0.044-0.137-0.044-0.214s0.016-0.151 0.045-0.218l-0.001 0.003c0-0.057 0.057-0.114 0.114-0.143l0.2-0.114c0.068-0.023 0.147-0.036 0.229-0.036s0.16 0.013 0.234 0.038l-0.005-0.002 0.171 0.086-0.057 0.057h-0.114c-0.064-0.036-0.14-0.057-0.221-0.057-0.003 0-0.005 0-0.008 0h-0.171l-0.143 0.114-0.086 0.114-0.029 0.171 0.029 0.171c0.045 0.096 0.126 0.168 0.226 0.199l0.003 0.001h0.257c0.001 0 0.001 0 0.002 0 0.073 0 0.142-0.021 0.199-0.058l-0.002 0.001h0.029zM12.343 13.771c0 0.057 0 0.143-0.057 0.2 0 0.057-0.057 0.114-0.114 0.171-0.048 0.047-0.105 0.085-0.168 0.113l-0.004 0.001h-0.486c-0.077-0.026-0.144-0.065-0.201-0.115l0.001 0.001-0.114-0.171c-0.057-0.143-0.057-0.286 0-0.429l0.114-0.143 0.2-0.114c0.143-0.057 0.314-0.057 0.486 0 0.057 0 0.114 0.057 0.171 0.114 0.105 0.090 0.171 0.222 0.171 0.37 0 0 0 0.001 0 0.001v-0zM12.171 13.771l-0.029-0.171c-0.041-0.098-0.124-0.172-0.226-0.199l-0.002-0.001c-0.051-0.017-0.11-0.026-0.171-0.026s-0.12 0.010-0.175 0.027l0.004-0.001-0.114 0.057c-0.057 0.057-0.086 0.086-0.086 0.143-0.057 0.114-0.057 0.229 0 0.343 0.036 0.093 0.107 0.164 0.198 0.199l0.002 0.001h0.343c0.057 0 0.114-0.057 0.143-0.086l0.086-0.114 0.029-0.171zM13.571 13.943v0.029l0.057-0.029v-0.029l0.4-0.629h0.029l0.029-0.029h0.143v1.029h-0.143v-0.857l-0.429 0.629v0.029h-0.114l-0.429-0.657v0.857h-0.143v-1.029h0.171l0.429 0.657v0.029zM15.086 13.886v0.4h-0.143v-1.029h0.543l0.143 0.086 0.086 0.086v0.143c0.001 0.007 0.001 0.015 0.001 0.024 0 0.080-0.033 0.153-0.087 0.205l-0 0-0.143 0.057-0.2 0.029h-0.2zM15.086 13.771h0.343c0.057 0 0.086-0.029 0.086-0.057l0.057-0.057 0.029-0.086v-0.086l-0.057-0.057c-0.086-0.057-0.143-0.057-0.229-0.057h-0.2v0.4zM17.229 14.286h-0.143l-0.057-0.057-0.086-0.229h-0.571l-0.086 0.229v0.029h-0.2l0.457-1h0.171l0.486 1.029zM16.429 13.886h0.457l-0.2-0.4v-0.086l-0.057 0.029v0.057l-0.2 0.4zM17.886 13.257h0.029l0.686 0.8v-0.8h0.143v1.029h-0.086l-0.029-0.029-0.686-0.771v0.8h-0.143v-1.029h0.086zM19.914 13.857v0.429h-0.143v-0.429l-0.457-0.6h0.171l0.029 0.029 0.286 0.4c0.010 0.024 0.020 0.052 0.028 0.082l0.001 0.004 0.029-0.029 0.029-0.057 0.286-0.4 0.029-0.029h0.143l-0.429 0.6zM13.514 11.543h0.2c1.057-0.371 1.971-1.057 2.571-1.886 0.629-0.857 0.971-1.829 0.943-2.829l-1.171-1c0.229 1.057 0.114 2.171-0.343 3.171-0.486 1.067-1.24 1.94-2.177 2.557l-0.023 0.014z">
      </path>
      <path
        d="M13.086 11.514h0.029c1.086-0.657 1.886-1.571 2.343-2.629 0.264-0.58 0.418-1.258 0.418-1.971 0-0.478-0.069-0.941-0.198-1.377l0.009 0.034-1.686-1.429c0.539 0.885 0.859 1.956 0.859 3.101 0 1.668-0.678 3.179-1.773 4.27l-0 0zM18.743 8c-0.327 1.171-1.025 2.146-1.956 2.818l-0.015 0.010c-0.265 0.201-0.564 0.391-0.879 0.555l-0.035 0.017c0.8-0.2 1.543-0.571 2.171-1.057 0.6-0.486 1.086-1.086 1.4-1.743l-0.686-0.571z">
      </path>
      <path
        d="M18.486 7.857l-0.971-0.857c0 0.971-0.314 1.886-0.886 2.686s-1.429 1.457-2.371 1.886h0.657c0.909-0.327 1.684-0.835 2.313-1.484l0.002-0.002c0.629-0.657 1.057-1.429 1.257-2.229zM13.229 3.543l-1.143-0.971c-1.036 0.326-1.909 0.922-2.564 1.706l-0.007 0.009c-0.6 0.771-0.943 1.714-0.943 2.629 0.015 1.106 0.447 2.108 1.145 2.86l-0.002-0.003c0.771 0.857 1.829 1.429 3 1.686 1.057-1.114 1.686-2.457 1.771-3.886s-0.343-2.829-1.257-4zM21.143 7.714c0-1.257-0.571-2.429-1.6-3.314-1.056-0.851-2.414-1.366-3.892-1.366-0.692 0-1.358 0.113-1.98 0.321l0.044-0.013 7.029 6c0.236-0.475 0.382-1.033 0.4-1.623l0-0.006z">
      </path>
    </symbol>
    <symbol id="icon-fos-pet" viewBox="0 0 30 16">
      <path
        d="M6.857 6.143c-0.657 0-1.2 0.514-1.2 1.143 0 0.571 0.543 1.086 1.229 1.086s1.229-0.486 1.229-1.114c0-0.6-0.571-1.114-1.229-1.114zM16 5.8c0-0.857-0.4-1.686-1.057-2.286-0.665-0.586-1.544-0.943-2.505-0.943-0.003 0-0.006 0-0.009 0h0c-0.971 0-1.857 0.343-2.543 0.943-0.657 0.6-1.029 1.429-1.029 2.286v4.686s7.143-0.714 7.143-4.686zM3.143 12.057c0 0.571 0.286 1.143 0.743 1.571 0.461 0.408 1.071 0.657 1.739 0.657 0.001 0 0.003 0 0.004 0h-0c0.657 0 1.286-0.229 1.743-0.657 0.444-0.384 0.727-0.943 0.743-1.569l0-0.003v-3.286s-4.971 0.486-4.971 3.286zM5.629 12.629c-0.143 0-0.257-0.029-0.371-0.086l-0.229-0.286c-0.057-0.086-0.057-0.2-0.029-0.314 0-0.114 0.086-0.229 0.171-0.314s0.2-0.143 0.343-0.171c0.114 0 0.257 0 0.371 0.057 0.114 0.029 0.2 0.114 0.286 0.2 0.062 0.090 0.099 0.202 0.099 0.322 0 0.166-0.071 0.316-0.185 0.421l-0 0-0.2 0.143-0.257 0.029zM10.171 11.571v1.229h-0.257v-1.229h0.286zM10.657 12.086v0.2h-0.571v-0.2h0.571zM10.714 11.571v0.2h-0.6v-0.2h0.6zM11.857 12.143v0.086l-0.029 0.229c0 0.086-0.057 0.143-0.114 0.2-0.029 0.057-0.086 0.086-0.171 0.114l-0.2 0.029-0.2-0.029-0.171-0.114c-0.050-0.056-0.089-0.123-0.113-0.196l-0.001-0.004-0.029-0.229v-0.086l0.029-0.229 0.114-0.2 0.171-0.114 0.2-0.029 0.2 0.029c0.086 0.029 0.143 0.057 0.171 0.114l0.114 0.2 0.029 0.229zM11.6 12.229v-0.257l-0.057-0.114c-0.042-0.053-0.107-0.087-0.179-0.087-0.007 0-0.015 0-0.022 0.001l0.001-0h-0.114l-0.086 0.086-0.057 0.114v0.4l0.057 0.143 0.086 0.086h0.229l0.086-0.086 0.057-0.143v-0.143zM12.686 12.486v-0.057l-0.114-0.114-0.143-0.029-0.143-0.057-0.143-0.086-0.086-0.114c-0.006-0.021-0.009-0.046-0.009-0.071s0.003-0.050 0.010-0.073l-0 0.002v-0.114l0.114-0.114 0.143-0.086c0.047-0.012 0.1-0.019 0.155-0.019 0.088 0 0.172 0.017 0.249 0.049l-0.004-0.002 0.171 0.143 0.057 0.2h-0.286v-0.114l-0.057-0.057h-0.114c-0.017-0.004-0.037-0.006-0.057-0.006s-0.040 0.002-0.059 0.006l0.002-0-0.057 0.057-0.029 0.057v0.057l0.057 0.057 0.086 0.029 0.086 0.057 0.2 0.057 0.114 0.086c0.070 0.058 0.115 0.145 0.115 0.243 0 0.005-0 0.010-0 0.015l0-0.001-0.029 0.143-0.114 0.086-0.143 0.086c-0.046 0.011-0.099 0.017-0.153 0.017-0.134 0-0.259-0.038-0.364-0.105l0.003 0.002-0.114-0.114-0.029-0.2h0.257v0.114l0.057 0.057 0.086 0.029h0.2c0.046-0.020 0.079-0.063 0.086-0.114l0-0.001zM13.657 11.571v1.229h-0.286v-1.229h0.286zM14.029 11.571v0.2h-1v-0.2h1zM14.971 12.6v0.2h-0.629v-0.229h0.629zM14.4 11.571v1.229h-0.229v-1.229h0.257zM14.886 12.086v0.171h-0.571v-0.171h0.571zM14.971 11.571v0.2h-0.629v-0.2h0.629zM15.143 11.571h0.429c0.114 0 0.171 0 0.257 0.057 0.057 0 0.114 0.057 0.143 0.114 0.057 0.057 0.057 0.114 0.057 0.2l-0.029 0.171c0 0.057-0.057 0.086-0.086 0.114l-0.143 0.086-0.086 0.029h-0.4v-0.2h0.429l0.086-0.086v-0.2l-0.086-0.057-0.114-0.029h-0.2v1.029h-0.257v-1.229zM15.8 12.8l-0.286-0.571h0.286l0.286 0.571h-0.286zM17.143 12.371h-0.314v-0.2h0.286l0.143-0.029 0.057-0.057v-0.2l-0.057-0.086c-0.032-0.018-0.070-0.029-0.111-0.029-0.001 0-0.003 0-0.004 0h-0.228v1.029h-0.286v-1.229h0.514c0.086 0 0.171 0 0.229 0.057 0.135 0.057 0.229 0.189 0.229 0.343v0l-0.057 0.2c-0.057 0.057-0.086 0.114-0.171 0.143-0.067 0.033-0.145 0.054-0.227 0.057l-0.001 0zM18.571 12.6v0.2h-0.657v-0.229h0.657zM18 11.571v1.229h-0.229v-1.229h0.229zM18.486 12.086v0.171h-0.571v-0.171h0.571zM18.571 11.571v0.2h-0.657v-0.2h0.657zM19.286 11.571v1.229h-0.257v-1.229h0.257zM19.657 11.571v0.2h-1v-0.2h1zM20.629 12.6v0.2h-0.657v-0.229h0.657zM20.057 11.571v1.229h-0.257v-1.229h0.257zM20.543 12.086v0.171h-0.571v-0.171h0.571zM20.629 11.571v0.2h-0.657v-0.2h0.657zM20.771 11.571h0.457c0.086 0 0.171 0 0.229 0.057 0.086 0 0.114 0.057 0.171 0.114l0.057 0.2c0 0.057 0 0.114-0.057 0.171 0 0.057-0.029 0.086-0.086 0.114l-0.143 0.086-0.086 0.029h-0.371v-0.2h0.4l0.057-0.086v-0.2l-0.057-0.057-0.114-0.029h-0.2v1.029h-0.286v-1.229zM21.457 12.8l-0.286-0.571h0.286l0.286 0.571h-0.286zM22.514 12.486v-0.057l-0.057-0.057-0.086-0.057-0.114-0.029-0.143-0.057-0.143-0.086-0.086-0.114c-0.018-0.037-0.029-0.080-0.029-0.126 0-0.006 0-0.012 0.001-0.018l-0 0.001 0.029-0.114c0-0.057 0.057-0.086 0.086-0.114l0.143-0.086c0.052-0.015 0.111-0.023 0.173-0.023 0.092 0 0.18 0.019 0.26 0.053l-0.004-0.002 0.143 0.143c0.057 0.057 0.057 0.114 0.057 0.2h-0.229l-0.029-0.114-0.086-0.057h-0.114c-0.013-0.002-0.028-0.003-0.043-0.003s-0.030 0.001-0.044 0.003l0.002-0-0.086 0.057v0.114l0.057 0.057 0.171 0.086 0.171 0.057 0.143 0.086c0.055 0.056 0.088 0.133 0.088 0.218 0 0.014-0.001 0.027-0.003 0.040l0-0.002v0.143l-0.114 0.086-0.143 0.086c-0.046 0.011-0.099 0.017-0.153 0.017-0.134 0-0.259-0.038-0.364-0.105l0.003 0.002-0.114-0.114-0.029-0.2h0.229l0.029 0.114 0.057 0.057 0.057 0.029h0.229c0.046-0.020 0.079-0.063 0.086-0.114l0-0.001z">
      </path>
    </symbol>
    <symbol id="icon-brand" viewBox="0 0 30 16">
      <path
        d="M7.657 12.686c0.057 0.057 0.114 0.171 0.114 0.286 0 0.057 0 0.114-0.057 0.171 0 0.057-0.057 0.114-0.114 0.171-0.143 0.086-0.286 0.114-0.486 0.114h-0.829v-1.714h0.829c0.143 0 0.286 0 0.457 0.114l0.114 0.143 0.029 0.171c0 0.114 0 0.2-0.086 0.286-0.057 0.057-0.171 0.114-0.257 0.114 0.114 0.029 0.2 0.086 0.286 0.171zM6.686 12.4h0.343c0.086 0 0.143 0 0.229-0.057l0.057-0.057v-0.2l-0.057-0.086-0.229-0.057h-0.343v0.457zM7.257 13.086c0.057 0 0.086-0.057 0.086-0.086v-0.2l-0.057-0.086-0.257-0.057h-0.343v0.486h0.371c0.086 0 0.143 0 0.229-0.057zM9.314 13.429l-0.429-0.686h-0.171v0.686h-0.429v-1.714h0.743c0.171 0 0.371 0.029 0.514 0.143 0.114 0.086 0.171 0.229 0.171 0.343 0 0.143-0.029 0.286-0.114 0.371-0.086 0.114-0.229 0.171-0.371 0.2l0.486 0.686h-0.429zM8.714 12.514h0.286c0.257 0 0.343-0.086 0.343-0.286v-0.086c-0.014-0.033-0.034-0.062-0.057-0.086l0 0c-0.086-0.057-0.171-0.086-0.286-0.086h-0.286v0.543zM11.457 13.086h-0.771l-0.114 0.343h-0.4l0.714-1.714h0.457l0.714 1.714h-0.429l-0.143-0.343zM11.371 12.8l-0.286-0.714-0.286 0.714h0.571zM14.143 13.429h-0.371l-0.857-1.2v1.2h-0.4v-1.714h0.343l0.857 1.2v-1.2h0.4v1.714zM16.371 13c-0.086 0.143-0.2 0.257-0.343 0.314-0.171 0.086-0.371 0.114-0.571 0.114h-0.686v-1.714h0.686c0.2 0 0.4 0 0.571 0.114 0.143 0.057 0.286 0.171 0.343 0.286 0.074 0.132 0.118 0.289 0.118 0.457s-0.044 0.325-0.121 0.462l0.002-0.005zM15.914 12.971c0.111-0.109 0.18-0.261 0.18-0.429s-0.069-0.32-0.18-0.428l-0-0c-0.114-0.086-0.286-0.143-0.486-0.143h-0.286v1.143h0.286c0.2 0 0.371-0.029 0.486-0.143zM11.714 1.943s5.029 1.714 4.914 4.171v4.171s-5.029-1.714-4.914-4.171v-4.171zM21.086 9.314c0.971-0.571 2.057-0.971 3.2-1.057v-1.314c-1.321 0.45-2.416 1.277-3.187 2.352l-0.013 0.019z">
      </path>
      <path
        d="M20.514 9.714c0.8-1.429 2.143-2.514 3.771-3.057v-3.743s-7.143 2.429-7 5.943v5.943l0.829-0.314v-0.571c0.178-1.739 1.075-3.239 2.384-4.217l0.016-0.011z">
      </path>
      <path
        d="M19.857 11.914c0.029-0.429 0.114-0.829 0.229-1.229-0.899 0.937-1.468 2.198-1.514 3.591l-0 0.009 1.4-0.657c-0.143-0.571-0.171-1.143-0.114-1.714zM20.143 11.943c-0.057 0.514-0.029 1.029 0.086 1.543 1.943-1.057 4.143-2.686 4.057-4.629v-0.171c-1.4 0.143-2.714 0.686-3.714 1.543-0.229 0.571-0.4 1.143-0.429 1.714z">
      </path>
    </symbol>
    <symbol id="icon-com-teg-line" viewBox="0 0 30 16">
      <path
        d="M15.286 7.829c-0.108-0.142-0.173-0.322-0.173-0.517 0-0.019 0.001-0.038 0.002-0.057l-0 0.003v-0.8c0-0.286 0.057-0.457 0.171-0.571 0.114-0.143 0.314-0.2 0.6-0.2s0.457 0.057 0.571 0.143c0.114 0.143 0.171 0.343 0.143 0.514v0.2h-0.457v-0.4c0-0.057-0.057-0.086-0.086-0.114-0.047-0.036-0.107-0.057-0.171-0.057v0c-0.065 0-0.124 0.021-0.172 0.058l0.001-0.001c-0.057 0.029-0.086 0.086-0.086 0.114v1.229c0 0.086 0 0.171 0.057 0.286l0.086 0.057h0.114l0.171-0.029 0.057-0.114v-0.429h0.486v0.2c0 0.171-0.029 0.371-0.143 0.514-0.114 0.114-0.286 0.171-0.571 0.171s-0.486-0.057-0.571-0.2zM17.257 7.857c-0.114-0.143-0.171-0.314-0.171-0.571v-0.857c0-0.257 0.057-0.429 0.171-0.571 0.114-0.114 0.286-0.171 0.571-0.171s0.486 0.057 0.6 0.171c0.114 0.143 0.2 0.314 0.2 0.571v0.857c0 0.257-0.086 0.429-0.2 0.571-0.114 0.114-0.286 0.171-0.571 0.171s-0.486-0.057-0.6-0.171zM18.057 7.629c0.057-0.057 0.057-0.143 0.057-0.257v-1.057c0-0.086 0-0.171-0.057-0.257l-0.057-0.057c-0.017-0.004-0.037-0.006-0.057-0.006s-0.040 0.002-0.059 0.006l0.002-0c-0.021-0.006-0.046-0.009-0.071-0.009s-0.050 0.003-0.073 0.010l0.002-0-0.086 0.057c-0.057 0.086-0.057 0.171-0.057 0.286v1.057c0 0.086 0 0.171 0.057 0.257l0.086 0.057c0.038 0.016 0.082 0.025 0.129 0.025s0.091-0.009 0.131-0.026l-0.002 0.001 0.086-0.057zM19.171 5.714h0.543l0.371 1.6 0.4-1.629h0.486l0.057 2.314h-0.371l-0.029-1.6-0.371 1.6h-0.286l-0.4-1.6-0.029 1.6h-0.4l0.029-2.286zM21.571 5.714h0.771c0.457 0 0.686 0.2 0.686 0.629s-0.229 0.629-0.714 0.629h-0.286v1.029h-0.457v-2.286zM22.229 6.686h0.143c0.057 0 0.086-0.057 0.143-0.086 0.057-0.057 0.086-0.143 0.057-0.257v-0.2l-0.114-0.114-0.229-0.029h-0.171v0.686h0.171zM23.714 5.714h0.571l0.514 2.286h-0.457l-0.114-0.514h-0.457l-0.114 0.514h-0.457l0.543-2.286zM24.171 7.2l-0.171-0.971-0.171 0.971h0.343zM25.229 5.714h0.343l0.657 1.314v-1.343h0.4v2.314h-0.343l-0.657-1.371v1.371h-0.429v-2.286zM27.571 7.143l-0.543-1.429h0.457l0.343 0.914 0.286-0.914h0.457l-0.543 1.429v0.857h-0.457v-0.857zM16.057 9.029v0.114h-0.4v0.943h-0.171v-0.943h-0.4v-0.114h0.971zM17.286 10.086h-0.143v-0.029l-0.114-0.286h-0.571l-0.114 0.286-0.057 0.029h-0.114l0.486-1.057h0.171l0.486 1.057zM16.486 9.686h0.457l-0.2-0.429-0.029-0.114v0.057l-0.029 0.057-0.2 0.429zM18.114 10h0.114c0.054-0.014 0.102-0.033 0.146-0.059l-0.003 0.001h0.057v-0.286h-0.2v-0.086h0.343v0.4c-0.089 0.059-0.196 0.099-0.311 0.114l-0.004 0h-0.143l-0.257-0.029c-0.077-0.026-0.144-0.065-0.201-0.115l0.001 0.001-0.114-0.171c-0.029-0.057-0.057-0.143-0.029-0.229l0.029-0.2 0.114-0.171 0.2-0.114c0.077-0.026 0.165-0.041 0.257-0.041 0.050 0 0.1 0.005 0.148 0.013l-0.005-0.001c0.084 0.006 0.162 0.026 0.233 0.059l-0.004-0.002 0.086 0.057-0.057 0.086h-0.114l-0.057-0.057c-0.056-0.019-0.12-0.030-0.187-0.030-0.015 0-0.029 0.001-0.043 0.002l0.002-0c-0.026-0.004-0.055-0.006-0.086-0.006s-0.060 0.002-0.089 0.007l0.003-0-0.143 0.114-0.114 0.114v0.371l0.114 0.143c0.072 0.056 0.163 0.089 0.261 0.089 0.019 0 0.037-0.001 0.055-0.004l-0.002 0zM19.686 9.971h0.514v0.114h-0.686v-1.057h0.171v0.943zM20.771 10.086h-0.2v-1.057h0.171v1.057zM21.371 9.029h0.029l0.714 0.829v-0.829h0.143v1.057h-0.114v-0.029l-0.743-0.8v0.829h-0.143v-1.057h0.114zM23.486 9.029v0.114h-0.571v0.343h0.457v0.114h-0.486v0.371h0.6v0.114h-0.771v-1.057h0.771zM6.057 2.486l7.371 1.8v6.343l-7.371-1.8v-6.343zM5.571 1.914v7.229l8.343 2.057v-7.229l-8.343-2.029z">
      </path>
      <path d="M10.057 14.514l-8.343-2.057v-7.2l8.343 2.057v7.2z"></path>
      <path
        d="M5.714 2.4l7.286 1.771-3.086 2.686-7.286-1.8 3.086-2.657zM5.571 1.943l-3.857 3.314 8.343 2.057 3.857-3.343-8.343-2.029zM10.514 14.114l3.4-2.971-3.4-0.857v3.8z">
      </path>
    </symbol>
    <symbol id="icon-antenna" viewBox="0 0 16 16">
      <path fill="#2e2f42" style="fill: var(--color1, #2e2f42)"
        d="M15.375 11.050l-4.2-4.25 0.45-2.3 0.4 0.050c0.002 0 0.005 0 0.007 0 0.594 0 1.075-0.481 1.075-1.075s-0.481-1.075-1.075-1.075c-0.594 0-1.075 0.481-1.075 1.075 0 0.135 0.025 0.264 0.070 0.382l-0.002-0.007-2.5 0.3-4.025-4.075c-0.045-0.045-0.106-0.074-0.175-0.075h-0c-0.006-0.001-0.013-0.001-0.021-0.001-0.070 0-0.134 0.029-0.179 0.076l-0.75 0.75c-0.052 0.046-0.085 0.113-0.085 0.188s0.033 0.141 0.084 0.187l0 0 0.375 0.425c-0.561 1.024-0.891 2.243-0.891 3.539 0 2.090 0.857 3.979 2.239 5.335l0.001 0.001-0.025 0.25v3.125h-3.2c-0.75 0-1.35 0.6-1.35 1.325v0.525c0 0.15 0.125 0.275 0.275 0.275h12.25c0.175 0 0.275-0.125 0.275-0.25v-0.55c0-0.75-0.575-1.325-1.325-1.325h-3.2v-1.375c0.448 0.095 0.962 0.149 1.489 0.149 1.305 0 2.531-0.333 3.6-0.919l-0.039 0.020 0.4 0.425c0.050 0.050 0.125 0.075 0.2 0.075s0.125 0 0.175-0.075l0.75-0.75c0.125-0.1 0.125-0.25 0-0.375zM11.625 3.125c0.094-0.092 0.224-0.149 0.366-0.149 0.29 0 0.525 0.235 0.525 0.525 0 0.278-0.216 0.506-0.49 0.524l-0.002 0c-0.002 0-0.005 0-0.008 0-0.29 0-0.525-0.235-0.525-0.525 0-0.147 0.060-0.28 0.158-0.375l0-0zM11 4.875l-0.25 1.475-0.625-0.6 0.875-0.875zM10.7 4.425l-0.95 0.95-0.75-0.75 1.7-0.2zM12 14.4c0.45 0 0.8 0.35 0.8 0.8v0.25h-11.75v-0.25c0-0.45 0.375-0.8 0.825-0.8h10.125zM8.25 13.325v0.55h-2.625v-0.55h2.675zM5.6 12.8v-2.025c0-0.65 0.6-1.175 1.325-1.175 0.75 0 1.35 0.525 1.35 1.175v2.025h-2.675zM8.8 11.95v-1.175c0-0.95-0.825-1.7-1.875-1.7-0.007-0-0.016-0-0.025-0-0.669 0-1.257 0.346-1.595 0.868l-0.005 0.007c-1.181-1.24-1.908-2.922-1.908-4.774 0-1.15 0.28-2.235 0.777-3.19l-0.018 0.038 9.3 9.35c-1.425 0.725-3.075 0.925-4.65 0.575zM14.45 11.6l-0.375-0.35-9.775-9.85-0.375-0.4 0.375-0.375 3.975 4 6.55 6.575-0.375 0.375z">
      </path>
      <path fill="#4d5ae5" style="fill: var(--color2, #4d5ae5)"
        d="M6.95 10.125c-0.442 0-0.8 0.358-0.8 0.8s0.358 0.8 0.8 0.8v0c0.442 0 0.8-0.358 0.8-0.8s-0.358-0.8-0.8-0.8v0zM7.125 11.125c-0.039 0.027-0.088 0.043-0.14 0.043-0.138 0-0.25-0.112-0.25-0.25 0-0.117 0.080-0.215 0.188-0.242l0.002-0c0.018-0.005 0.039-0.007 0.060-0.007 0.138 0 0.25 0.112 0.25 0.25 0 0.086-0.043 0.162-0.11 0.207l-0.001 0.001z">
      </path>
    </symbol>
    <symbol id="icon-clock" viewBox="0 0 16 16">
      <path fill="#2e2f42" style="fill: var(--color1, #2e2f42)"
        d="M15.65 7.65c0-0.003 0-0.008 0-0.012 0-4.225-3.425-7.65-7.65-7.65s-7.65 3.425-7.65 7.65c0 3.422 2.247 6.319 5.346 7.297l0.054 0.015c0.075 0 0.125 0 0.175-0.050 0.075-0.025 0.125-0.1 0.15-0.175l1.925-6.125c0.524-0 0.949-0.426 0.949-0.95s-0.425-0.95-0.95-0.95c-0.155 0-0.301 0.037-0.43 0.102l0.005-0.002-2.55-2.575c-0.050-0.033-0.112-0.053-0.178-0.053-0.179 0-0.325 0.146-0.325 0.325 0 0.066 0.020 0.128 0.054 0.179l-0.001-0.001 2.55 2.575c-0.056 0.118-0.089 0.256-0.089 0.402 0 0.303 0.142 0.572 0.362 0.746l0.002 0.002-1.85 5.825c-2.688-1.018-4.564-3.571-4.564-6.562 0-3.866 3.134-7 7-7s7 3.134 7 7c0 2.829-1.678 5.265-4.092 6.369l-0.044 0.018-0.2-0.925c-0.035-0.145-0.163-0.251-0.316-0.251-0.080 0-0.153 0.029-0.209 0.076l0.001-0-1.925 1.7c-0.065 0.060-0.105 0.145-0.105 0.239 0 0.146 0.096 0.269 0.228 0.31l0.002 0.001 2.425 0.8c0.023 0.006 0.050 0.009 0.077 0.009 0.179 0 0.325-0.146 0.325-0.325 0-0.012-0.001-0.024-0.002-0.036l0 0.001-0.2-0.925c2.77-1.184 4.675-3.885 4.675-7.031 0-0.007-0-0.013-0-0.020v0.001zM8 7.325c0.18 0 0.325 0.146 0.325 0.325s-0.146 0.325-0.325 0.325v0c-0.179 0-0.325-0.146-0.325-0.325s0.146-0.325 0.325-0.325v0zM9.050 14.775l1.1-1 0.3 1.425-1.4-0.425z">
      </path>
      <path fill="#4d5ae5" style="fill: var(--color2, #4d5ae5)"
        d="M7.675 1.6v0.625c0 0.179 0.146 0.325 0.325 0.325s0.325-0.146 0.325-0.325v-0.625c0-0.179-0.146-0.325-0.325-0.325s-0.325 0.145-0.325 0.325v0zM1.95 7.325c-0.179 0-0.325 0.146-0.325 0.325s0.145 0.325 0.325 0.325v0h0.625c0.179 0 0.325-0.146 0.325-0.325s-0.146-0.325-0.325-0.325v0h-0.625zM14.050 7.975c0.18 0 0.325-0.146 0.325-0.325s-0.146-0.325-0.325-0.325v0h-0.625c-0.18 0-0.325 0.146-0.325 0.325s0.146 0.325 0.325 0.325v0h0.625z">
      </path>
    </symbol>
    <symbol id="icon-diagram" viewBox="0 0 16 16">
      <path fill="#4d5ae5" style="fill: var(--color1, #4d5ae5)"
        d="M7.475 7.5h0.5v2.375h-0.5v-2.375zM9.6 8.55h0.525v1.325h-0.525v-1.325zM5.325 9.35h0.55v0.525h-0.55v-0.525zM3.75 9.075h0.5v0.8h-0.5v-0.8z">
      </path>
      <path fill="#2e2f42" style="fill: var(--color2, #2e2f42)"
        d="M0.8 14.15h12.8c0.425 0 0.8-0.375 0.8-0.8v-1.1c0-0.425-0.375-0.8-0.8-0.8h-0.25v-6.625l1.5-1.425c0.101 0.050 0.22 0.079 0.346 0.079 0.442 0 0.8-0.358 0.8-0.8s-0.358-0.8-0.8-0.8c-0.442 0-0.8 0.358-0.8 0.8 0 0.126 0.029 0.245 0.081 0.351l-0.002-0.005-1.15 1.075v-0.625c0-0.425-0.35-0.8-0.8-0.8h-10.65c-0 0-0 0-0 0-0.442 0-0.8 0.358-0.8 0.8 0 0.009 0 0.018 0 0.026l-0-0.001v8h-0.275c-0 0-0 0-0 0-0.433 0-0.786 0.344-0.8 0.774l-0 0.001v1.075c0 0.425 0.35 0.8 0.8 0.8zM15.2 2.4c0.152 0 0.275 0.123 0.275 0.275s-0.123 0.275-0.275 0.275v0c-0.145 0-0.262-0.118-0.262-0.263s0.118-0.263 0.262-0.263v0zM1.6 3.5c0-0.15 0.125-0.25 0.25-0.25h10.675c0.15 0 0.25 0.1 0.25 0.25v1.125l-0.5 0.5v-1.075c0-0.15-0.125-0.275-0.275-0.275h-9.6c-0.138 0-0.25 0.112-0.25 0.25v0 6.675c0 0.15 0.1 0.25 0.25 0.25h9.6c0.15 0 0.25-0.1 0.25-0.25v-4.85l0.55-0.5v6.125h-11.2v-7.975zM4 6.95c-0.002-0-0.004-0-0.006-0-0.442 0-0.8 0.358-0.8 0.8s0.358 0.8 0.8 0.8c0.216 0 0.412-0.086 0.556-0.225l-0 0 0.925 0.475c0.1 0.050 0.25 0 0.325-0.075l1.95-2.225 1.925 1.45c0.1 0.1 0.25 0.075 0.35 0l1.675-1.6v4.075h-9.025v-6.175h9.050v1.35l-1.875 1.775-1.95-1.475c-0.044-0.039-0.102-0.063-0.166-0.063-0.087 0-0.164 0.045-0.209 0.112l-0.001 0.001-2 2.25-0.75-0.375v-0.075c0-0.45-0.325-0.8-0.775-0.8zM4.25 7.75c0 0.138-0.112 0.25-0.25 0.25s-0.25-0.112-0.25-0.25v0c0-0.138 0.112-0.25 0.25-0.25s0.25 0.112 0.25 0.25v0zM5.875 12h2.625v0.275c0 0.15-0.125 0.25-0.25 0.25h-2.15c-0.138 0-0.25-0.112-0.25-0.25v0-0.25zM0.5 12.3c0-0.15 0.125-0.25 0.275-0.25h4.525v0.25c0 0.45 0.375 0.8 0.8 0.8h2.15c0.45 0 0.8-0.35 0.8-0.8v-0.25h4.55c0.15 0 0.25 0.1 0.25 0.25v1.075c0 0.15-0.1 0.25-0.25 0.25h-12.8c-0.138 0-0.25-0.112-0.25-0.25v0-1.125z">
      </path>
    </symbol>
    <symbol id="icon-astronaut" viewBox="0 0 16 16">
      <path fill="#4d5ae5" style="fill: var(--color1, #4d5ae5)"
        d="M16 2.25c-0.033-0.102-0.127-0.175-0.239-0.175-0.004 0-0.008 0-0.012 0l0.001-0-0.925-0.125-0.425-0.875c-0.1-0.175-0.4-0.175-0.5 0l-0.4 0.875-0.95 0.125c-0.138 0-0.25 0.112-0.25 0.25 0 0.082 0.039 0.154 0.099 0.2l0.001 0 0.7 0.675-0.175 0.95c-0.031 0.041-0.050 0.093-0.050 0.15 0 0.138 0.112 0.25 0.25 0.25 0.082 0 0.154-0.039 0.2-0.099l0-0.001 0.85-0.45 0.85 0.45c0.046 0.061 0.118 0.1 0.2 0.1 0.138 0 0.25-0.112 0.25-0.25 0-0.057-0.019-0.109-0.050-0.151l0 0.001-0.175-0.95 0.7-0.675c0.075-0.050 0.1-0.175 0.050-0.25zM14.75 2.925c-0.051 0.046-0.083 0.112-0.083 0.186 0 0.023 0.003 0.045 0.009 0.065l-0-0.002 0.1 0.55-0.5-0.25c-0.036-0.021-0.079-0.034-0.125-0.034s-0.089 0.012-0.126 0.034l0.001-0.001-0.5 0.25 0.1-0.575c0-0.075 0-0.175-0.075-0.225l-0.4-0.4 0.55-0.075c0.075 0 0.15-0.075 0.2-0.15l0.25-0.5 0.25 0.5c0.050 0.075 0.125 0.125 0.2 0.15l0.55 0.075-0.4 0.4zM13.075 10.25h-0.575v0.55h0.55v-0.55zM13.075 11.325h-0.575v0.525h0.55v-0.5zM13.6 10.8h-0.525v0.525h0.525v-0.525z">
      </path>
      <path fill="#4d5ae5" style="fill: var(--color1, #4d5ae5)"
        d="M12.525 10.8h-0.525v0.525h0.525v-0.525zM11.2 13.2h-0.525v0.525h0.525v-0.525zM11.2 14.25h-0.525v0.55h0.525v-0.55zM11.75 13.75h-0.55v0.5h0.525v-0.5zM10.675 13.75h-0.55v0.5h0.55v-0.5zM8 12.125h-0.525v0.525h0.525v-0.5zM8 13.2h-0.525v0.525h0.525v-0.525zM8.525 12.65h-0.525v0.55h0.525v-0.55z">
      </path>
      <path fill="#4d5ae5" style="fill: var(--color1, #4d5ae5)"
        d="M7.475 12.65h-0.55v0.55h0.575v-0.55zM2.925 3.050h-0.525v0.55h0.525v-0.55zM2.925 4.125h-0.525v0.525h0.525v-0.5zM3.475 3.6h-0.55v0.525h0.575v-0.525zM2.4 3.6h-0.525v0.525h0.525v-0.525z">
      </path>
      <path fill="#2e2f42" style="fill: var(--color2, #2e2f42)"
        d="M12.35 7.075c-0.135-0.184-0.337-0.313-0.57-0.349l-0.005-0.001c-0.25-0.025-0.5 0.025-0.675 0.175l-0.625 0.5-0.95 0.7-0.675-0.275c1.196-0.566 2.008-1.763 2.008-3.15 0-1.904-1.532-3.451-3.431-3.475l-0.002-0c-1.913 0.026-3.454 1.583-3.454 3.5 0 0.685 0.197 1.325 0.538 1.865l-0.009-0.014h-1.4c-0.011-0.002-0.024-0.003-0.038-0.003s-0.026 0.001-0.039 0.003l0.001-0h-0.025l-1.625 0.8-0.95 0.45-0.025 0.025c-0.204 0.166-0.334 0.418-0.334 0.7 0 0.497 0.403 0.9 0.9 0.9 0.13 0 0.253-0.027 0.365-0.077l-0.006 0.002 0.675-0.35 1.15-0.575h0.675l-2.725 2.675-0.675 0.675c-0.152 0.15-0.246 0.358-0.246 0.588s0.094 0.438 0.246 0.587l0 0c0.15 0.152 0.358 0.246 0.588 0.246s0.438-0.094 0.587-0.246l0-0 0.675-0.65 0.85-0.65 0.45 0.45-1.55 1.55c-0.152 0.15-0.246 0.358-0.246 0.588s0.094 0.438 0.246 0.587l0 0c0.151 0.159 0.364 0.259 0.6 0.259s0.449-0.099 0.6-0.258l0-0 0.65-0.675 1.575-1.575 2.625-2.825 1.75 0.25c0.005 0 0.010 0 0.015 0 0.040 0 0.078-0.009 0.111-0.026l-0.001 0.001 0.050-0.025 1.6-1.075h0.050l0.6-0.625c0.168-0.164 0.272-0.392 0.272-0.645 0-0.199-0.065-0.383-0.174-0.532l0.002 0.003zM1.075 8.875c-0.1 0.050-0.2 0.075-0.3 0.025-0.147-0.044-0.252-0.178-0.252-0.336 0-0.119 0.060-0.225 0.151-0.288l0.001-0.001 0.65-0.275 0.175 0.45 0.050 0.2-0.5 0.25zM2.825 7.975l-0.775 0.4-0.15-0.375-0.075-0.25 1-0.5v0.725zM10.375 4.65c0 0.475-0.125 0.9-0.3 1.3l-2.1-0.95c0-0.3-0.175-0.55-0.4-0.7l0.75-2.425c1.175 0.375 2.050 1.5 2.050 2.775zM4.475 4.65c0.015-1.618 1.33-2.924 2.95-2.924 0.132 0 0.262 0.009 0.39 0.026l-0.015-0.002-0.75 2.375c-0.5 0-0.95 0.425-0.95 0.925-0.001 0.018-0.002 0.039-0.002 0.061 0 0.511 0.414 0.925 0.925 0.925 0.36 0 0.672-0.205 0.825-0.505l0.002-0.005 1.925 0.875c-0.544 0.712-1.394 1.167-2.35 1.167-1.618 0-2.931-1.302-2.95-2.915l-0-0.002zM7.45 5.050c0 0.25-0.175 0.4-0.4 0.4-0.25 0-0.4-0.175-0.4-0.4 0-0.2 0.175-0.4 0.4-0.4s0.4 0.2 0.4 0.4zM1.225 12.55c-0.1 0.15-0.3 0.15-0.425 0-0.047-0.053-0.076-0.123-0.076-0.2s0.029-0.147 0.077-0.2l-0 0 0.5-0.5 0.4 0.45-0.45 0.475zM2.85 14.45c-0.125 0.1-0.325 0.1-0.45 0-0.055-0.054-0.088-0.129-0.088-0.213s0.034-0.158 0.088-0.212l0.5-0.5 0.2 0.225 0.225 0.2-0.5 0.5zM4.6 12.7l-0.9 0.875-0.2-0.2-0.25-0.225 0.9-0.875 0.050-0.050v-0.025l0.025-0.075v-0.125c-0.013-0.029-0.030-0.054-0.050-0.075l-0.825-0.825h-0.025l-0.050-0.050h-0.25v0.025l-0.925 0.675-0.45-0.45 1.2-1.2 2.175 2.15-0.475 0.45zM8 9.2h-0.025c-0.011-0.002-0.023-0.003-0.036-0.003-0.042 0-0.081 0.010-0.116 0.028l0.001-0.001-0.050 0.050-2.375 2.575-2.15-2.1 1.4-1.4c0.098-0.037 0.166-0.129 0.166-0.238 0-0.14-0.113-0.253-0.253-0.253-0.031 0-0.061 0.006-0.089 0.016l0.002-0.001h-1.125v-0.775h1.575c0.632 0.652 1.517 1.057 2.496 1.057 0.222 0 0.44-0.021 0.651-0.061l-0.022 0.003 0.075 0.025 1.2 0.5 0.075 0.375 0.1 0.425-1.5-0.2zM10 9.275l-0.15-0.75 0.75-0.55 0.175 0.25 0.275 0.375-1.050 0.65zM11.875 7.875l-0.375 0.375-0.5-0.6 0.425-0.325c0.075-0.050 0.175-0.075 0.25-0.075 0.186 0.009 0.334 0.162 0.334 0.35 0 0.111-0.052 0.211-0.133 0.275l-0.001 0.001z">
      </path>
      <path fill="#2e2f42" style="fill: var(--color2, #2e2f42)"
        d="M6.8 9.25l-1.075-1.050c-0.046-0.052-0.113-0.085-0.188-0.085s-0.141 0.033-0.187 0.084l-0 0-1.075 1.075c-0.052 0.046-0.085 0.113-0.085 0.188s0.033 0.141 0.084 0.187l0 0 1.075 1.075c0.046 0.052 0.113 0.085 0.188 0.085s0.141-0.033 0.187-0.084l0-0 1.075-1.075c0.052-0.046 0.085-0.113 0.085-0.188s-0.033-0.141-0.084-0.187l-0-0zM5.55 10.15l-0.7-0.7 0.7-0.675 0.675 0.675-0.675 0.7zM8.575 2.525l-0.125 0.525c0.050 0 0.875 0.25 0.875 1.075h0.525c0-1-0.825-1.5-1.25-1.6zM9.85 4.65h-0.525v0.55h0.525v-0.55z">
      </path>
    </symbol>
    <symbol id="icon-modal-btn" viewBox="0 0 16 16">
      <path
        d="M16 1.6l-1.6-1.6-6.4 6.4-6.4-6.4-1.6 1.6 6.4 6.4-6.4 6.4 1.6 1.6 6.4-6.4 6.4 6.4 1.6-1.6-6.4-6.4 6.4-6.4z">
      </path>
    </symbol>
    <symbol id="icon-checkbox-vector" viewBox="0 0 20 16">
      <path
        d="M16.8 0.6c0.337-0.266 0.767-0.427 1.235-0.427 0.973 0 1.783 0.694 1.963 1.614l0.002 0.013c0 0.4 0 1-0.4 1.4l-10 12.2c-0.347 0.298-0.802 0.48-1.3 0.48s-0.953-0.182-1.303-0.482l0.003 0.002-6.4-6.4c-0.273-0.339-0.438-0.774-0.438-1.248 0-1.105 0.895-2 2-2 0.155 0 0.306 0.018 0.451 0.051l-0.013-0.003 0.6 0.6 5.2 5 8.4-10.8z">
      </path>
    </symbol>
    <symbol id="icon-person" viewBox="0 0 16 16">
      <path
        d="M6 8c1.105 0 2-0.895 2-2s-0.895-2-2-2v0c-1.105 0-2 0.895-2 2s0.895 2 2 2v0zM6 9c-1.333 0-4 0.667-4 2v0.533c0 0.267 0.2 0.467 0.533 0.467h6.933c0.333 0 0.533-0.2 0.533-0.533v-0.467c0-1.333-2.667-2-4-2z">
      </path>
    </symbol>
    <symbol id="icon-phone" viewBox="0 0 12 16">
      <path
        d="M9.8 9.267l-1.2-0.133c-0.333-0.067-0.6 0-0.8 0.267l-0.867 0.867c-1.333-0.667-2.533-1.8-3.2-3.2l0.867-0.867c0.267-0.2 0.333-0.533 0.333-0.8l-0.267-1.2c0-0.533-0.467-0.867-0.933-0.867h-0.733c-0.6 0-1 0.467-1 1 0.267 4.133 3.533 7.4 7.667 7.667 0.533 0 1-0.4 1-0.933v-0.867c0-0.467-0.333-0.867-0.867-0.933z">
      </path>
    </symbol>
    <symbol id="icon-email" viewBox="0 0 12 16">
      <path
        d="M10 4h-8c-0.533 0-1 0.467-1 1v6c0 0.533 0.467 1 1 1h8c0.533 0 1-0.467 1-1v-6c0-0.533-0.467-1-1-1zM9.8 6.133l-3.533 2.2c-0.133 0.133-0.4 0.133-0.533 0l-3.533-2.2c-0.106-0.075-0.174-0.196-0.174-0.333 0-0.225 0.182-0.407 0.407-0.407 0.087 0 0.168 0.028 0.235 0.074l-0.001-0.001 3.333 2 3.333-2c0.065-0.046 0.146-0.074 0.233-0.074 0.225 0 0.407 0.182 0.407 0.407 0 0.137-0.068 0.259-0.172 0.332l-0.001 0.001z">
      </path>
    </symbol>
    <symbol id="icon-form-telegram" viewBox="0 0 19 16">
      <path d="M19.2 0l-19.2 9.040 6.16 1.84 9.44-7.36-7.2 8v4.48l3.44-3.36 4.4 1.36 2.96-14z"></path>
    </symbol>
    <symbol id="icon-mob-btn-open" viewBox="0 0 23 16">
      <path stroke-linejoin="round" stroke-linecap="round" stroke-miterlimit="4" stroke-width="2.1818"
        d="M0.945 14.545h21.6M0.945 7.782h21.6M0.945 1.018h21.6"></path>
    </symbol>
    
  </defs>
</svg>